<svg width="306" height="57" viewBox="0 0 306 57" fill="none" xmlns="http://www.w3.org/2000/svg">
<path d="M86.462 15.654H89.431L82.7166 41.3208H76.3379L69.6235 15.654H72.5926L78.4886 38.7977H80.5659L86.462 15.654ZM93.103 41.3208V15.654H108.719V18.1771H95.9618V27.0422H106.495V29.5287H95.9618V38.8029H108.719V41.3261H93.103V41.3208ZM127.362 41.3208H113.23V15.654H116.084V38.761H127.357V41.3208H127.362ZM131.774 28.6002C131.774 32.356 132.267 35.068 133.258 36.7204C134.25 38.3518 136.149 39.1701 138.971 39.1701C141.793 39.1701 143.718 38.3675 144.683 36.7571C145.675 35.152 146.168 32.4557 146.168 28.6736C146.168 24.8915 145.659 22.1323 144.646 20.4013C143.634 18.6702 141.73 17.8047 138.934 17.8047C136.138 17.8047 134.276 18.6702 133.258 20.4013C132.267 22.1061 131.774 24.8391 131.774 28.6002ZM149.132 28.6736C149.132 33.2478 148.402 36.563 146.944 38.6141C145.486 40.6651 142.826 41.6933 138.971 41.6933C135.115 41.6933 132.492 40.6441 131.034 38.5406C129.576 36.4371 128.847 33.1376 128.847 28.6369C128.847 24.1361 129.586 20.7632 131.071 18.5863C132.555 16.3831 135.189 15.2868 138.971 15.2868C142.753 15.2868 145.386 16.3726 146.871 18.5496C148.381 20.7265 149.132 24.0994 149.132 28.6736ZM169.5 40.9117C166.956 41.431 164.669 41.688 162.639 41.688C160.609 41.688 158.967 41.4152 157.708 40.8697C156.47 40.3032 155.51 39.4376 154.818 38.2731C154.152 37.0876 153.679 35.7395 153.407 34.2287C153.16 32.697 153.034 30.7929 153.034 28.5162C153.034 26.2396 153.16 24.3355 153.407 22.8038C153.679 21.2458 154.146 19.8715 154.818 18.6859C155.51 17.5004 156.475 16.6349 157.708 16.0894C158.946 15.5438 160.551 15.271 162.529 15.271C164.506 15.271 166.83 15.5438 169.5 16.0894L169.39 18.5023C166.893 18.0565 164.669 17.8361 162.712 17.8361C159.995 17.8361 158.185 18.6545 157.299 20.2859C156.433 21.891 156.003 24.6502 156.003 28.5582C156.003 30.5096 156.077 32.0833 156.224 33.2688C156.397 34.4543 156.717 35.5297 157.189 36.4948C157.661 37.4338 158.338 38.1157 159.229 38.5354C160.142 38.9288 161.469 39.1282 163.2 39.1282C164.931 39.1282 167.019 38.9078 169.395 38.462L169.506 40.9117H169.5ZM173.802 41.3208V15.654H176.655V41.3208H173.802ZM179.887 18.2138V15.654H198.43V18.2138H190.603V41.3208H187.787V18.2138H179.887ZM209.981 41.3208H207.127V30.5253L198.928 15.654H202.154L208.533 27.6717L214.912 15.654H218.138L209.976 30.5253V41.3208H209.981ZM243.317 41.3208H229.332V15.355H230.67V40.0566H243.317V41.3156V41.3208ZM244.518 41.3208L252.491 15.3602H256.42L264.394 41.3208H263.056L260.643 33.3475H248.253L245.84 41.3208H244.502H244.518ZM253.42 16.6192L248.673 32.0833H260.244L255.497 16.6192H253.42ZM268.47 15.3602H277.371C282.365 15.3602 284.862 17.5004 284.862 21.7756C284.862 24.9912 283.661 27.0422 281.264 27.934C284.327 28.7733 285.864 30.8505 285.864 34.1658C285.864 36.8358 285.198 38.7033 283.86 39.7681C282.549 40.8068 280.618 41.3261 278.074 41.3261H268.47V15.355V15.3602ZM277.781 28.6736H269.807V40.0619H278.08C280.131 40.0619 281.715 39.6317 282.827 38.7662C283.939 37.8744 284.495 36.3427 284.495 34.1658C284.495 30.5043 282.255 28.6789 277.781 28.6789V28.6736ZM277.371 16.6192H269.807V27.4147H277.781C279.784 27.4147 281.232 26.9583 282.119 26.0403C283.031 25.1276 283.493 23.7427 283.493 21.8858C283.493 20.0288 283 18.6964 282.008 17.8781C281.017 17.0388 279.475 16.6192 277.371 16.6192ZM297.777 16.21C293.376 16.21 291.173 17.9411 291.173 21.4032C291.173 22.9611 291.43 24.0837 291.949 24.7761C292.248 25.1486 292.557 25.4685 292.877 25.7413C293.197 25.9879 293.67 26.2134 294.289 26.4075C295.301 26.7065 296.586 26.974 298.144 27.2258C300.84 27.6455 302.765 28.3012 303.93 29.1929C305.116 30.0585 305.708 31.5902 305.708 33.7933C305.708 36.5893 305.053 38.5879 303.741 39.7996C302.456 40.9851 300.489 41.5779 297.845 41.5779C296.214 41.5779 294.026 41.431 291.283 41.132L289.908 40.9851L290.055 39.6894C293.465 40.1091 296.161 40.3189 298.139 40.3189C302.241 40.3189 304.297 38.1787 304.297 33.9035C304.297 32.099 303.825 30.8506 302.886 30.1581C301.947 29.4657 300.489 28.9726 298.511 28.6736C296.56 28.3746 295.159 28.1176 294.32 27.8973C293.502 27.6507 292.699 27.2783 291.907 26.7852C291.141 26.2921 290.585 25.6207 290.239 24.7814C289.919 23.9158 289.756 22.8143 289.756 21.4819C289.756 17.128 292.426 14.9563 297.766 14.9563C299.471 14.9563 301.527 15.1032 303.925 15.4022L305.147 15.5491L305 16.8447C301.611 16.4251 299.204 16.2152 297.766 16.2152L297.777 16.21Z" fill="#FCFCFA"/>
<path d="M57.4065 22.1114L57.1809 21.3089H57.1704L56.9658 21.3718L57.1704 22.1744C57.9363 24.9074 57.5376 27.9131 56.0216 30.3051C55.2925 31.5273 54.2171 32.4558 53.21 33.4577C51.2534 35.3619 36.3663 49.8923 33.948 52.1899C30.1974 55.652 24.0705 55.8041 20.0996 52.662C18.122 51.1565 16.7581 48.9481 16.2073 46.5351C16.2178 46.4879 11.7328 28.7839 10.5683 24.1205C9.25162 19.4991 13.6789 15.3288 18.2112 16.955C22.1139 18.0618 37.2003 22.3475 37.2003 22.3475C37.4049 22.4104 37.62 22.4524 37.8455 22.4524C38.9261 22.4524 39.7969 21.5764 39.7969 20.501C39.7969 19.5726 39.1465 18.7962 38.2809 18.5969C38.2809 18.5969 22.9584 14.7413 19.0609 13.7657C17.4138 13.2935 15.6303 13.2201 13.9779 13.6975C9.22539 14.9984 6.34554 20.1496 7.84579 24.8497C9.1572 29.4816 14.1405 46.9442 14.3241 47.6209C15.111 50.228 16.7686 52.578 18.977 54.157C23.3414 57.3726 29.762 57.3568 34.0005 53.9367C34.588 53.4855 35.1335 52.94 35.6476 52.4102C37.5675 50.4326 51.7569 35.8183 53.6296 33.8879C54.6315 32.8545 55.7226 31.8316 56.4308 30.5622C57.9258 28.0495 58.272 24.8916 57.4012 22.1167L57.4065 22.1114Z" fill="#FF5C02"/>
<path d="M48.053 8.84513C46.7993 8.05829 45.2885 7.53373 43.8775 7.20325L18.9135 0.777358C17.5182 0.425901 16.0966 -0.0199775 14.6383 0.00100502C11.706 -0.04096 8.81044 1.23373 6.83808 3.36345L6.37646 3.83556L6.53908 3.99817L7.01119 3.53656C8.98879 1.52224 11.8004 0.37869 14.6278 0.488848C16.0546 0.509831 17.387 0.971446 18.7509 1.35962L43.5208 8.49892C44.8846 8.86087 46.1016 9.32773 47.2609 10.0936C51.8088 12.9839 53.4874 19.4465 50.8909 24.1361C50.2771 25.3164 49.4063 26.3341 48.4359 27.2363L33.0085 42.1863C32.164 43.0309 31.2093 43.9594 30.0447 44.3318C26.5669 45.5645 22.8792 43.3719 22.2707 39.7471C21.2688 35.7762 17.3818 20.4117 17.3818 20.4117C17.1615 19.6459 16.4009 19.0794 15.5406 19.0794C14.46 19.0794 13.5892 19.9554 13.5892 21.0307C13.5892 21.2038 13.6207 21.3717 13.6626 21.5343C13.6626 21.5343 17.9693 36.7204 19.0656 40.5864C20.5764 47.3953 29.0061 50.0286 34.0052 45.1187C37.4673 41.5831 49.7421 28.9254 49.7421 28.9254C51.022 27.6455 51.9924 26.4127 52.6639 25.0279C55.5228 19.4361 53.414 12.0502 48.0477 8.83989L48.053 8.84513Z" fill="#FF5C02"/>
<path d="M44.7381 17.5057C43.7624 14.757 41.3337 12.601 38.4958 11.9453C38.3804 11.9138 16.2176 6.35348 16.2176 6.35348C14.7226 5.94432 13.1594 5.73974 11.612 5.87088C5.32772 6.25381 -0.0385585 11.9191 0.00340655 18.2034C-0.0385585 19.7036 0.312899 21.2196 0.74304 22.6464C2.42689 28.6369 8.00299 48.329 8.40166 49.6771C9.05211 51.7911 10.416 53.6743 12.189 54.9752C13.3693 55.8407 14.7331 56.4597 16.1495 56.7849L17.0097 57L17.0622 56.7902L16.2176 56.5489C14.8276 56.1869 13.5319 55.5575 12.4146 54.6867C10.7517 53.3805 9.50324 51.5498 8.93147 49.5145C8.55903 48.1611 2.03871 22.2949 2.03871 22.2949C1.68201 20.994 1.38825 19.583 1.47743 18.2296C1.72922 11.1165 8.93671 6.09119 15.6669 8.38878C22.2449 10.251 31.2988 12.8318 37.8873 14.6993C42.3356 15.9372 43.668 21.7284 40.1587 24.7499C37.2159 27.6035 30.7113 33.9088 25.8486 38.6246C25.8119 38.6613 25.6912 38.7767 25.6178 38.8554C25.109 39.4219 25.0618 40.4081 25.5076 41.111C26.0847 42.0237 27.2912 42.2965 28.2039 41.7247C28.3245 41.6461 28.4347 41.5569 28.5344 41.4625C28.5344 41.4625 43.112 26.5177 43.327 26.1662C45.2837 23.7899 45.8187 20.3645 44.7434 17.5004L44.7381 17.5057Z" fill="#FF5C02"/>
</svg>
